<?xml version="1.0" encoding="UTF-8"?>
<svg version="1.1" xmlns="http://www.w3.org/2000/svg" width="260" height="230">
<path d="M0 0 C-1.06957872 10.16099787 -5.71037841 21.00597871 -12 29 C-17.9054606 33.65638688 -25.0402854 35.9859824 -31.98144531 38.68408203 C-37.1105209 40.92006694 -41.6775763 43.95216077 -46.3125 47.0625 C-47.15997803 47.62404785 -48.00745605 48.1855957 -48.88061523 48.76416016 C-53.15381653 51.61791687 -53.15381653 51.61791687 -57 55 C-55.63294922 54.09121094 -55.63294922 54.09121094 -54.23828125 53.1640625 C-31.90558479 38.5984947 2.44569046 20.20419979 30 22 C23.88991173 30.98542393 15.11227335 43.59916979 3.9375 46 C2.87402344 46.15082031 1.81054688 46.30164063 0.71484375 46.45703125 C-3.98841692 47.14446893 -8.4371899 48.37525934 -13 49.6875 C-13.89227295 49.94354004 -14.7845459 50.19958008 -15.70385742 50.46337891 C-45.70780887 58.53356171 -45.70780887 58.53356171 -69.16796875 76.99609375 C-70.4073336 79.98104289 -70.50461752 81.78306329 -70 85 C-66.9783428 90.02128329 -62.82141481 92.92601368 -57.8359375 95.80078125 C-55.30973066 97.45087806 -53.69344069 99.53039899 -52 102 C-63.84007426 101.21066172 -76.19999261 97.34286295 -85.625 89.9375 C-88.51231355 83.76914833 -87.98953683 77.78729783 -85.7421875 71.45703125 C-81.99934822 63.47520888 -77.16027429 57.29275331 -71 51 C-69.8667655 49.67365828 -68.74129872 48.3406267 -67.625 47 C-53.27178963 30.65237998 -34.51799797 19.01219311 -16 8 C-14.87827393 7.33266846 -14.87827393 7.33266846 -13.73388672 6.65185547 C-2.48629836 0 -2.48629836 0 0 0 Z " fill="#27B6FA" transform="translate(116,57)"/>
<path d="M0 0 C-6.11008827 8.98542393 -14.88772665 21.59916979 -26.0625 24 C-27.12597656 24.15082031 -28.18945312 24.30164063 -29.28515625 24.45703125 C-33.98841692 25.14446893 -38.4371899 26.37525934 -43 27.6875 C-43.89227295 27.94354004 -44.7845459 28.19958008 -45.70385742 28.46337891 C-75.70780887 36.53356171 -75.70780887 36.53356171 -99.16796875 54.99609375 C-100.4073336 57.98104289 -100.50461752 59.78306329 -100 63 C-96.9783428 68.02128329 -92.82141481 70.92601368 -87.8359375 73.80078125 C-85.30973066 75.45087806 -83.69344069 77.53039899 -82 80 C-83.43836751 79.88541307 -84.87570966 79.75790884 -86.3125 79.625 C-87.11300781 79.55539063 -87.91351563 79.48578125 -88.73828125 79.4140625 C-91 79 -91 79 -94 77 C-92.35 77 -90.7 77 -89 77 C-89 76.34 -89 75.68 -89 75 C-89.58007812 74.90203125 -90.16015625 74.8040625 -90.7578125 74.703125 C-97.44348692 73.42335894 -102.11682971 71.17161693 -106.875 66.1875 C-109.36533691 62.45199463 -109.43998855 60.39988547 -109 56 C-108.34 56 -107.68 56 -107 56 C-106.896875 55.0925 -106.79375 54.185 -106.6875 53.25 C-105.99350187 49.96928156 -105.29914332 48.39110905 -103 46 C-102.34 46 -101.68 46 -101 46 C-100.566875 45.071875 -100.566875 45.071875 -100.125 44.125 C-98.3741526 40.81784381 -95.94513894 39.25287749 -92.8671875 37.25 C-91.54040549 36.36177774 -90.23488209 35.44143483 -88.9453125 34.5 C-66.24606997 17.99145998 -28.83801474 -1.87946328 0 0 Z " fill="#0215B5" transform="translate(146,79)"/>
<path d="M0 0 C1.17111328 -0.01224609 2.34222656 -0.02449219 3.54882812 -0.03710938 C4.66580078 -0.03904297 5.78277344 -0.04097656 6.93359375 -0.04296875 C7.96411865 -0.04707764 8.99464355 -0.05118652 10.05639648 -0.05541992 C12.5625 0.1875 12.5625 0.1875 14.5625 2.1875 C14.82128906 4.76953125 14.82128906 4.76953125 14.828125 8 C14.83199219 9.73636719 14.83199219 9.73636719 14.8359375 11.5078125 C14.82820313 12.72210938 14.82046875 13.93640625 14.8125 15.1875 C14.82023437 16.40179688 14.82796875 17.61609375 14.8359375 18.8671875 C14.83335937 20.02476562 14.83078125 21.18234375 14.828125 22.375 C14.82586914 23.44105469 14.82361328 24.50710937 14.82128906 25.60546875 C14.5625 28.1875 14.5625 28.1875 12.5625 30.1875 C10.1640625 30.43041992 10.1640625 30.43041992 7.1875 30.41796875 C6.12015625 30.41603516 5.0528125 30.41410156 3.953125 30.41210938 C2.83421875 30.39986328 1.7153125 30.38761719 0.5625 30.375 C-1.11585938 30.3740332 -1.11585938 30.3740332 -2.828125 30.37304688 C-11.15693681 30.32778159 -11.15693681 30.32778159 -13.4375 29.1875 C-13.46215881 25.21819011 -13.48034023 21.24890966 -13.49243164 17.27954102 C-13.49747057 15.92829614 -13.50430177 14.57705674 -13.51293945 13.22583008 C-13.52502419 11.28729566 -13.53019828 9.348722 -13.53515625 7.41015625 C-13.54039307 6.24234619 -13.54562988 5.07453613 -13.55102539 3.87133789 C-13.28515624 -2.41403765 -4.85487962 0.00266313 0 0 Z M-1.4375 5.1875 C-1.4375 11.7875 -1.4375 18.3875 -1.4375 25.1875 C-0.4475 25.1875 0.5425 25.1875 1.5625 25.1875 C1.5625 18.5875 1.5625 11.9875 1.5625 5.1875 C0.5725 5.1875 -0.4175 5.1875 -1.4375 5.1875 Z " fill="#0416A9" transform="translate(148.4375,136.8125)"/>
<path d="M0 0 C3.96 0 7.92 0 12 0 C12 8.25 12 16.5 12 25 C12.99 25 13.98 25 15 25 C15 16.75 15 8.5 15 0 C18.96 0 22.92 0 27 0 C27 8.25 27 16.5 27 25 C27.99 25 28.98 25 30 25 C30 26.65 30 28.3 30 30 C26.04900072 30.0246985 22.09803126 30.04285923 18.14697266 30.05493164 C16.14093449 30.06244036 14.13491798 30.0751447 12.12890625 30.08789062 C10.24365234 30.09272461 10.24365234 30.09272461 8.3203125 30.09765625 C6.57645264 30.10551147 6.57645264 30.10551147 4.79736328 30.11352539 C2 30 2 30 0 29 C0 19.43 0 9.86 0 0 Z " fill="#071693" transform="translate(165,137)"/>
<path d="M0 0 C6.88760372 0.65179301 14.14264386 0.86554894 20.9765625 -0.2734375 C24.11804407 -0.79701776 26.83948188 -0.41652724 29.9765625 0.00390625 C35.87812188 0.54942855 41.84470566 0.33192728 47.765625 0.26171875 C47.765625 4.55171875 47.765625 8.84171875 47.765625 13.26171875 C44.62671418 14.30802236 42.40269454 14.39086269 39.109375 14.39453125 C38.00464844 14.39582031 36.89992187 14.39710937 35.76171875 14.3984375 C34.60800781 14.39457031 33.45429688 14.39070313 32.265625 14.38671875 C30.53505859 14.39251953 30.53505859 14.39251953 28.76953125 14.3984375 C27.11244141 14.39650391 27.11244141 14.39650391 25.421875 14.39453125 C23.90303711 14.39283936 23.90303711 14.39283936 22.35351562 14.39111328 C19.765625 14.26171875 19.765625 14.26171875 16.765625 13.26171875 C16.435625 13.59171875 16.105625 13.92171875 15.765625 14.26171875 C13.57500903 14.14282507 11.38747446 13.96556048 9.203125 13.76171875 C5.12514633 13.43051236 1.31539425 13.13017579 -2.734375 13.76171875 C-6.234375 14.26171875 -6.234375 14.26171875 -12.234375 13.26171875 C-12.234375 8.97171875 -12.234375 4.68171875 -12.234375 0.26171875 C-7.44398793 -0.53667909 -4.62564075 -0.60573867 0 0 Z M-8.234375 3.26171875 C-7.904375 3.92171875 -7.574375 4.58171875 -7.234375 5.26171875 C-5.254375 4.60171875 -3.274375 3.94171875 -1.234375 3.26171875 C-1.564375 2.60171875 -1.894375 1.94171875 -2.234375 1.26171875 C-5.41927507 0.98436865 -5.41927507 0.98436865 -8.234375 3.26171875 Z M22.765625 1.26171875 C22.105625 1.92171875 21.445625 2.58171875 20.765625 3.26171875 C23.735625 3.75671875 23.735625 3.75671875 26.765625 4.26171875 C27.74682964 7.31435539 27.74682964 9.20908211 26.765625 12.26171875 C28.45244238 11.16129956 28.45244238 11.16129956 29.765625 9.26171875 C29.765625 6.17838542 29.765625 6.17838542 28.765625 3.26171875 C25.95052507 0.98436865 25.95052507 0.98436865 22.765625 1.26171875 Z M37.765625 1.26171875 C36.56001316 2.24439734 36.56001316 2.24439734 36.66796875 4.109375 C36.67957031 4.84027344 36.69117188 5.57117188 36.703125 6.32421875 C36.72375 7.62359375 36.744375 8.92296875 36.765625 10.26171875 C38.085625 10.59171875 39.405625 10.92171875 40.765625 11.26171875 C40.105625 10.60171875 39.445625 9.94171875 38.765625 9.26171875 C38.49570594 6.5733249 38.67825143 3.97029939 38.765625 1.26171875 C38.435625 1.26171875 38.105625 1.26171875 37.765625 1.26171875 Z M8.765625 2.26171875 C8.58 3.54046875 8.394375 4.81921875 8.203125 6.13671875 C8.09871094 6.85601562 7.99429688 7.5753125 7.88671875 8.31640625 C7.5971953 10.34312542 7.5971953 10.34312542 8.765625 12.26171875 C9.755625 11.93171875 10.745625 11.60171875 11.765625 11.26171875 C11.105625 10.93171875 10.445625 10.60171875 9.765625 10.26171875 C9.765625 7.62171875 9.765625 4.98171875 9.765625 2.26171875 C9.435625 2.26171875 9.105625 2.26171875 8.765625 2.26171875 Z M43.765625 8.26171875 C43.435625 9.25171875 43.105625 10.24171875 42.765625 11.26171875 C43.425625 11.26171875 44.085625 11.26171875 44.765625 11.26171875 C44.435625 10.27171875 44.105625 9.28171875 43.765625 8.26171875 Z M-7.234375 10.26171875 C-7.234375 10.92171875 -7.234375 11.58171875 -7.234375 12.26171875 C-6.244375 11.93171875 -5.254375 11.60171875 -4.234375 11.26171875 C-5.224375 10.93171875 -6.214375 10.60171875 -7.234375 10.26171875 Z " fill="#20A2D3" transform="translate(211.234375,88.73828125)"/>
<path d="M0 0 C0 2.3125 0 2.3125 -1 5 C-3.55518097 6.38293093 -6.20866129 7.21791649 -9 8 C-2.32137824 11.01651083 3.63927766 13.57534294 11 14 C9.58298466 17.28227023 7.88057051 19.22893771 5.25 21.625 C1.34540294 25.38078301 -1.16463034 29.31608752 -3.67578125 34.09375 C-4.11277344 34.7228125 -4.54976562 35.351875 -5 36 C-5.99 36 -6.98 36 -8 36 C-8.23074219 35.33613281 -8.46148438 34.67226562 -8.69921875 33.98828125 C-10.67467574 28.63971192 -12.25003296 24.43614637 -17 21 C-22.83122665 18.34204553 -28.61838287 16.56725486 -35 16 C-35.33 15.01 -35.66 14.02 -36 13 C-35.41992188 12.90203125 -34.83984375 12.8040625 -34.2421875 12.703125 C-29.04204027 11.70771728 -25.13366141 10.5136122 -21 7 C-20.27617533 4.94074861 -20.27617533 4.94074861 -20 3 C-16.40071762 0.60047841 -14.28339005 0.61594069 -10 0.375 C-8.7625 0.30023438 -7.525 0.22546875 -6.25 0.1484375 C-4.16824935 0.05335754 -2.08392082 0 0 0 Z M-18 6 C-18 6.33 -18 6.66 -18 7 C-16.02 7 -14.04 7 -12 7 C-12 6.67 -12 6.34 -12 6 C-13.98 6 -15.96 6 -18 6 Z " fill="#0416AD" transform="translate(39,86)"/>
<path d="M0 0 C0.66 0 1.32 0 2 0 C1.7834375 0.8353125 1.7834375 0.8353125 1.5625 1.6875 C1.17422214 3.28375343 0.82217916 4.88910419 0.5 6.5 C0.06237996 8.68810019 -0.44014049 10.8405419 -1 13 C0.32 13 1.64 13 3 13 C1.50958227 16.79379058 -0.69062512 18.68343758 -4 21 C-4.66 21 -5.32 21 -6 21 C-6.3403125 21.804375 -6.3403125 21.804375 -6.6875 22.625 C-8 25 -8 25 -10.5 27.875 C-12.93848184 30.69471942 -14.04882092 33.36822534 -15 37 C-15.66 37 -16.32 37 -17 37 C-16.67 39.97 -16.34 42.94 -16 46 C-15.01 46.33 -14.02 46.66 -13 47 C-12.34 47.763125 -11.68 48.52625 -11 49.3125 C-7.80461176 52.73472136 -3.70798666 53.68448531 0.671875 55.0078125 C1.44015625 55.33523437 2.2084375 55.66265625 3 56 C3.33 56.99 3.66 57.98 4 59 C-5.98949318 58.06549902 -16.03893172 56.09606333 -23.296875 48.640625 C-26.34821467 43.90964881 -25.9125639 39.41912944 -25 34 C-21.58317224 24.37558142 -16.10227717 17.24006385 -9 10 C-7.67722439 8.50905368 -6.36385461 7.00967957 -5.0625 5.5 C-3.41582723 3.60029241 -1.77871894 1.77871894 0 0 Z " fill="#29A9E9" transform="translate(54,98)"/>
<path d="M0 0 C3.96 0 7.92 0 12 0 C12 15.51 12 31.02 12 47 C8.04 47 4.08 47 0 47 C0 31.49 0 15.98 0 0 Z " fill="#0516A0" transform="translate(120,120)"/>
<path d="M0 0 C1.12591553 0.00523682 2.25183105 0.01047363 3.41186523 0.01586914 C4.62680664 0.0190918 5.84174805 0.02231445 7.09350586 0.02563477 C8.37290039 0.03401367 9.65229492 0.04239258 10.97045898 0.05102539 C12.2537207 0.05553711 13.53698242 0.06004883 14.85913086 0.06469727 C18.04211921 0.07652994 21.22501661 0.09301471 24.40795898 0.11352539 C24.40795898 1.43352539 24.40795898 2.75352539 24.40795898 4.11352539 C19.78795898 4.44352539 15.16795898 4.77352539 10.40795898 5.11352539 C10.07795898 12.37352539 9.74795898 19.63352539 9.40795898 27.11352539 C14.35795898 27.11352539 19.30795898 27.11352539 24.40795898 27.11352539 C24.40795898 28.43352539 24.40795898 29.75352539 24.40795898 31.11352539 C15.16795898 31.11352539 5.92795898 31.11352539 -3.59204102 31.11352539 C-3.61495421 26.85930825 -3.63487991 22.60530383 -3.64697266 18.35107422 C-3.65201202 16.90282467 -3.65884355 15.45458022 -3.66748047 14.00634766 C-3.67956349 11.92877951 -3.68527313 9.85127842 -3.68969727 7.77368164 C-3.69493408 6.52208252 -3.7001709 5.2704834 -3.70556641 3.98095703 C-3.55411795 0.15566213 -3.55411795 0.15566213 0 0 Z " fill="#07168A" transform="translate(73.592041015625,134.886474609375)"/>
<path d="M0 0 C0 0.99 0 1.98 0 3 C-10 8 -10 8 -12.19921875 9.09765625 C-13.49087573 9.74488567 -14.77815982 10.40087021 -16.0625 11.0625 C-18 12 -18 12 -21 13 C-21 13.66 -21 14.32 -21 15 C-21.61875 15.103125 -22.2375 15.20625 -22.875 15.3125 C-25.36526484 15.87525373 -25.36526484 15.87525373 -27 19 C-29.625 19.6875 -29.625 19.6875 -32 20 C-32 20.66 -32 21.32 -32 22 C-32.66 22 -33.32 22 -34 22 C-34 22.66 -34 23.32 -34 24 C-26.94348748 24.14975239 -26.94348748 24.14975239 -20 23 C-23.95905495 26.16921855 -28.35333658 28.51525099 -32.77929688 30.95117188 C-40.42535972 35.03628669 -40.42535972 35.03628669 -45 42 C-45.54659206 45.07458034 -45.57281534 47.04811569 -43.9375 49.765625 C-40.74148298 53.76064628 -37.23627868 56.26341977 -32.8359375 58.80078125 C-30.30973066 60.45087806 -28.69344069 62.53039899 -27 65 C-28.43836751 64.88541307 -29.87570966 64.75790884 -31.3125 64.625 C-32.11300781 64.55539063 -32.91351563 64.48578125 -33.73828125 64.4140625 C-36 64 -36 64 -39 62 C-37.35 62 -35.7 62 -34 62 C-34 61.34 -34 60.68 -34 60 C-34.58007812 59.90203125 -35.16015625 59.8040625 -35.7578125 59.703125 C-42.44348692 58.42335894 -47.11682971 56.17161693 -51.875 51.1875 C-54.36533691 47.45199463 -54.43998855 45.39988547 -54 41 C-53.34 41 -52.68 41 -52 41 C-51.896875 40.0925 -51.79375 39.185 -51.6875 38.25 C-50.99350187 34.96928156 -50.29914332 33.39110905 -48 31 C-47.34 31 -46.68 31 -46 31 C-45.71125 30.38125 -45.4225 29.7625 -45.125 29.125 C-43.3741526 25.81784381 -40.94513894 24.25287749 -37.8671875 22.25 C-36.54040549 21.36177774 -35.23488209 20.44143483 -33.9453125 19.5 C-23.38535739 11.82003265 -11.76457444 5.62776518 0 0 Z " fill="#081B94" transform="translate(91,94)"/>
<path d="M0 0 C-3.89073315 5.7216664 -8.36953524 10.5620039 -13.25 15.4375 C-13.87664551 16.06479004 -14.50329102 16.69208008 -15.14892578 17.33837891 C-20.85561432 22.97711229 -20.85561432 22.97711229 -25.125 23.0625 C-26.07375 23.041875 -27.0225 23.02125 -28 23 C-28 22.67 -28 22.34 -28 22 C-24.535 21.505 -24.535 21.505 -21 21 C-20.87625 20.0925 -20.7525 19.185 -20.625 18.25 C-20.0724341 15.37665731 -19.35517759 13.53407191 -18 11 C-18.62648437 11.08378906 -19.25296875 11.16757813 -19.8984375 11.25390625 C-20.71570313 11.35574219 -21.53296875 11.45757812 -22.375 11.5625 C-23.18710938 11.66691406 -23.99921875 11.77132812 -24.8359375 11.87890625 C-27 12 -27 12 -29 11 C-37.21688946 10.51665356 -44.34477829 13.39618309 -52 16 C-52 15.34 -52 14.68 -52 14 C-40.90291502 9.50376729 -29.74628346 5.96631513 -18.125 3.0625 C-16.9071582 2.75626709 -15.68931641 2.45003418 -14.43457031 2.13452148 C-4.90531706 -0.18511692 -4.90531706 -0.18511692 0 0 Z " fill="#0417AC" transform="translate(146,79)"/>
<path d="M0 0 C3.3 0 6.6 0 10 0 C10 7.92 10 15.84 10 24 C11.65 24 13.3 24 15 24 C15.33 23.34 15.66 22.68 16 22 C16 22.99 16 23.98 16 25 C14 27 14 27 10.9609375 27.1953125 C9.77757812 27.17210937 8.59421875 27.14890625 7.375 27.125 C6.18648437 27.10695312 4.99796875 27.08890625 3.7734375 27.0703125 C2.85820312 27.04710937 1.94296875 27.02390625 1 27 C-0.3308911 24.33821779 -0.11268993 22.31260604 -0.09765625 19.3359375 C-0.09443359 18.21445313 -0.09121094 17.09296875 -0.08789062 15.9375 C-0.07951172 14.761875 -0.07113281 13.58625 -0.0625 12.375 C-0.05798828 11.19164062 -0.05347656 10.00828125 -0.04882812 8.7890625 C-0.03701467 5.85932493 -0.02054258 2.92968728 0 0 Z " fill="#0215B4" transform="translate(166,138)"/>
<path d="M0 0 C4.68371709 -0.31934435 6.35088361 0.23551789 10 3 C13.65274469 3.72481084 13.65274469 3.72481084 17 4 C14.99353887 8.91582976 12.69911455 13.43458319 10 18 C9.2480662 19.31139308 8.49800662 20.62386293 7.75 21.9375 C7.1725 22.948125 6.595 23.95875 6 25 C5.01 25 4.02 25 3 25 C2.76925781 24.34773438 2.53851563 23.69546875 2.30078125 23.0234375 C0.2161968 17.43708076 -1.89547701 13.33255205 -6 9 C-3.525 9.495 -3.525 9.495 -1 10 C-0.22157062 6.59437148 0.09978121 3.49234244 0 0 Z " fill="#0014B8" transform="translate(28,97)"/>
<path d="M0 0 C1.08667969 0.02707031 2.17335937 0.05414063 3.29296875 0.08203125 C4.54013672 0.13423828 4.54013672 0.13423828 5.8125 0.1875 C5.8125 2.1675 5.8125 4.1475 5.8125 6.1875 C6.4725 6.1875 7.1325 6.1875 7.8125 6.1875 C7.956875 5.383125 8.10125 4.57875 8.25 3.75 C8.8125 1.1875 8.8125 1.1875 9.8125 0.1875 C12.67517567 0.11424832 15.513219 0.09511795 18.375 0.125 C19.18130859 0.12951172 19.98761719 0.13402344 20.81835938 0.13867188 C22.81643756 0.15049482 24.81447783 0.16843086 26.8125 0.1875 C26.4825 2.8275 26.1525 5.4675 25.8125 8.1875 C22.23060705 9.87894945 20.56975762 10.24422871 16.8125 9.1875 C16.12414062 9.33832031 15.43578125 9.48914063 14.7265625 9.64453125 C10.85889259 10.36518288 7.11215242 10.33259208 3.1875 10.3125 C2.0428125 10.31830078 2.0428125 10.31830078 0.875 10.32421875 C-2.40101362 10.31847136 -5.05887676 10.23037441 -8.1875 9.1875 C-8.875 6.375 -8.875 6.375 -9.1875 3.1875 C-6.80661009 -0.48587301 -4.10757041 -0.13250227 0 0 Z M-4.1875 2.1875 C-4.8689823 4.07929203 -4.8689823 4.07929203 -5.1875 6.1875 C-4.5275 6.8475 -3.8675 7.5075 -3.1875 8.1875 C-1.8675 7.5275 -0.5475 6.8675 0.8125 6.1875 C0.8125 5.5275 0.8125 4.8675 0.8125 4.1875 C-1.6625 3.1975 -1.6625 3.1975 -4.1875 2.1875 Z M11.8125 2.1875 C11.8125 3.8375 11.8125 5.4875 11.8125 7.1875 C12.4725 7.1875 13.1325 7.1875 13.8125 7.1875 C13.8125 5.5375 13.8125 3.8875 13.8125 2.1875 C13.1525 2.1875 12.4925 2.1875 11.8125 2.1875 Z M20.8125 2.1875 C20.8125 3.8375 20.8125 5.4875 20.8125 7.1875 C21.4725 7.1875 22.1325 7.1875 22.8125 7.1875 C22.8125 5.5375 22.8125 3.8875 22.8125 2.1875 C22.1525 2.1875 21.4925 2.1875 20.8125 2.1875 Z " fill="#132260" transform="translate(165.1875,105.8125)"/>
<path d="M0 0 C2.31 0 4.62 0 7 0 C7.94220126 5.52708611 8.12116149 10.83758352 8.0625 16.4375 C8.05798828 17.26443359 8.05347656 18.09136719 8.04882812 18.94335938 C8.03715811 20.96227146 8.01922718 22.98114574 8 25 C13.28 25.33 18.56 25.66 24 26 C24 26.66 24 27.32 24 28 C16.08 28 8.16 28 0 28 C0 18.76 0 9.52 0 0 Z " fill="#0014B8" transform="translate(73,137)"/>
<path d="M0 0 C7.92 0 15.84 0 24 0 C24 7.92 24 15.84 24 24 C23.67 23.34 23.34 22.68 23 22 C22.34 22 21.68 22 21 22 C21 23.32 21 24.64 21 26 C18.69 26 16.38 26 14 26 C14.33 25.01 14.66 24.02 15 23 C15.1464714 21.44733347 15.24694074 19.89004338 15.31640625 18.33203125 C15.35830078 17.43935547 15.40019531 16.54667969 15.44335938 15.62695312 C15.48267578 14.69818359 15.52199219 13.76941406 15.5625 12.8125 C15.60568359 11.87212891 15.64886719 10.93175781 15.69335938 9.96289062 C15.79938543 7.64209812 15.90019194 5.32106823 16 3 C10.72 3 5.44 3 0 3 C0 2.01 0 1.02 0 0 Z " fill="#0114B9" transform="translate(137,139)"/>
<path d="M0 0 C0 0.99 0 1.98 0 3 C-10 8 -10 8 -12.19921875 9.09765625 C-13.49087573 9.74488567 -14.77815982 10.40087021 -16.0625 11.0625 C-18 12 -18 12 -21 13 C-21 13.66 -21 14.32 -21 15 C-21.61875 15.103125 -22.2375 15.20625 -22.875 15.3125 C-25.36526484 15.87525373 -25.36526484 15.87525373 -27 19 C-29.625 19.6875 -29.625 19.6875 -32 20 C-32 20.66 -32 21.32 -32 22 C-32.66 22 -33.32 22 -34 22 C-34 22.66 -34 23.32 -34 24 C-26.94348748 24.14975239 -26.94348748 24.14975239 -20 23 C-24.0371571 26.23581185 -28.53621311 28.62574964 -33.04296875 31.12695312 C-35.64448477 32.5878894 -37.87905746 33.87905746 -40 36 C-40.99 36 -41.98 36 -43 36 C-43 35.34 -43 34.68 -43 34 C-43.66 34 -44.32 34 -45 34 C-44.01 31.03 -44.01 31.03 -43 28 C-42.34 28 -41.68 28 -41 28 C-40.96003906 27.43667969 -40.92007813 26.87335938 -40.87890625 26.29296875 C-39.56057017 22.85357639 -36.87565071 21.32108198 -33.9375 19.3125 C-33.31842773 18.88042236 -32.69935547 18.44834473 -32.06152344 18.00317383 C-21.94468506 11.07720547 -11.04977241 5.28582863 0 0 Z " fill="#0319AD" transform="translate(91,94)"/>
<path d="M0 0 C4.95 0 9.9 0 15 0 C15 4.29 15 8.58 15 13 C12.05868109 13.98043964 10.17498335 14.11621202 7.11328125 14.09765625 C6.17548828 14.09443359 5.23769531 14.09121094 4.27148438 14.08789062 C3.29501953 14.07951172 2.31855469 14.07113281 1.3125 14.0625 C-0.16959961 14.05573242 -0.16959961 14.05573242 -1.68164062 14.04882812 C-4.12115474 14.03704303 -6.56054689 14.02059011 -9 14 C-8 12 -8 12 -5 11 C-0.42923832 7.50471166 -0.91338039 6.3936627 0 0 Z M5 1 C3.79438816 1.98267859 3.79438816 1.98267859 3.90234375 3.84765625 C3.91394531 4.57855469 3.92554688 5.30945313 3.9375 6.0625 C3.958125 7.361875 3.97875 8.66125 4 10 C5.32 10.33 6.64 10.66 8 11 C7.34 10.34 6.68 9.68 6 9 C5.73008094 6.31160615 5.91262643 3.70858064 6 1 C5.67 1 5.34 1 5 1 Z M11 8 C10.67 8.99 10.34 9.98 10 11 C10.66 11 11.32 11 12 11 C11.67 10.01 11.34 9.02 11 8 Z " fill="#2D9BCC" transform="translate(244,89)"/>
<path d="M0 0 C1 1 1 1 1.1328125 2.9609375 C1.13023437 3.75757812 1.12765625 4.55421875 1.125 5.375 C1.12757813 6.16648437 1.13015625 6.95796875 1.1328125 7.7734375 C1 10 1 10 0 13 C-5.41144142 13.83970643 -8.37347162 13.93775473 -14 13 C-14 8.71 -14 4.42 -14 0 C-8.35082924 -0.94152846 -5.42813477 -0.92002284 0 0 Z M-10 3 C-9.67 3.66 -9.34 4.32 -9 5 C-7.02 4.34 -5.04 3.68 -3 3 C-3.33 2.34 -3.66 1.68 -4 1 C-7.18490007 0.7226499 -7.18490007 0.7226499 -10 3 Z M-9 10 C-9 10.66 -9 11.32 -9 12 C-8.01 11.67 -7.02 11.34 -6 11 C-6.99 10.67 -7.98 10.34 -9 10 Z " fill="#22BBEA" transform="translate(213,89)"/>
<path d="M0 0 C0.99 1.485 0.99 1.485 2 3 C3.98 2.67 5.96 2.34 8 2 C8 2.66 8 3.32 8 4 C8.99 4.33 9.98 4.66 11 5 C11.99 6.1446875 11.99 6.1446875 13 7.3125 C16.19538824 10.73472136 20.29201334 11.68448531 24.671875 13.0078125 C25.44015625 13.33523437 26.2084375 13.66265625 27 14 C27.33 14.99 27.66 15.98 28 17 C18.15631873 16.07913949 8.99879861 13.90694019 1.17578125 7.5078125 C-0.66892277 5.14217877 -0.19248951 2.88734265 0 0 Z " fill="#199AED" transform="translate(30,140)"/>
<path d="M0 0 C1.17111328 -0.01224609 2.34222656 -0.02449219 3.54882812 -0.03710938 C4.66580078 -0.03904297 5.78277344 -0.04097656 6.93359375 -0.04296875 C7.96411865 -0.04707764 8.99464355 -0.05118652 10.05639648 -0.05541992 C12.5625 0.1875 12.5625 0.1875 14.5625 2.1875 C14.78955078 4.80126953 14.78955078 4.80126953 14.7578125 8.0703125 C14.75136719 9.23691406 14.74492187 10.40351563 14.73828125 11.60546875 C14.72152344 12.82878906 14.70476562 14.05210937 14.6875 15.3125 C14.67847656 16.54355469 14.66945312 17.77460938 14.66015625 19.04296875 C14.63652548 22.09133815 14.60358054 25.13932382 14.5625 28.1875 C13.9025 28.5175 13.2425 28.8475 12.5625 29.1875 C12.5625 20.2775 12.5625 11.3675 12.5625 2.1875 C4.6425 2.1875 -3.2775 2.1875 -11.4375 2.1875 C-11.7675 11.0975 -12.0975 20.0075 -12.4375 29.1875 C-12.7675 29.1875 -13.0975 29.1875 -13.4375 29.1875 C-13.46215881 25.21819011 -13.48034023 21.24890966 -13.49243164 17.27954102 C-13.49747057 15.92829614 -13.50430177 14.57705674 -13.51293945 13.22583008 C-13.52502419 11.28729566 -13.53019828 9.348722 -13.53515625 7.41015625 C-13.54039307 6.24234619 -13.54562988 5.07453613 -13.55102539 3.87133789 C-13.28515624 -2.41403765 -4.85487962 0.00266313 0 0 Z " fill="#0B1771" transform="translate(148.4375,136.8125)"/>
<path d="M0 0 C2.62451617 2.62451617 2.5832868 4.4877828 3.125 8.125 C3.29257812 9.22070312 3.46015625 10.31640625 3.6328125 11.4453125 C3.75398438 12.28835937 3.87515625 13.13140625 4 14 C4.66 14 5.32 14 6 14 C6.33 12.68 6.66 11.36 7 10 C7.3403125 10.44730469 7.680625 10.89460937 8.03125 11.35546875 C11.36077989 15.50852597 14.56852945 18.1508666 19.1640625 20.80078125 C21.69026934 22.45087806 23.30655931 24.53039899 25 27 C23.56163249 26.88541307 22.12429034 26.75790884 20.6875 26.625 C19.88699219 26.55539063 19.08648437 26.48578125 18.26171875 26.4140625 C16 26 16 26 13 24 C14.65 24 16.3 24 18 24 C18 23.34 18 22.68 18 22 C17.41992188 21.90203125 16.83984375 21.8040625 16.2421875 21.703125 C9.55651308 20.42335894 4.88317029 18.17161693 0.125 13.1875 C-2.36533691 9.45199463 -2.43998855 7.39988547 -2 3 C-1.34 3 -0.68 3 0 3 C0 2.01 0 1.02 0 0 Z " fill="#07246F" transform="translate(39,132)"/>
<path d="M0 0 C1.33333333 0.33333333 2.66666667 0.66666667 4 1 C4.721875 1.144375 5.44375 1.28875 6.1875 1.4375 C6.785625 1.623125 7.38375 1.80875 8 2 C8.33 2.66 8.66 3.32 9 4 C13.14093698 4.20970559 13.14093698 4.20970559 17 3 C17.66 3.66 18.32 4.32 19 5 C18.57847656 5.62648438 18.15695313 6.25296875 17.72265625 6.8984375 C17.17480469 7.71570313 16.62695312 8.53296875 16.0625 9.375 C15.51722656 10.18710938 14.97195312 10.99921875 14.41015625 11.8359375 C12.98906121 13.92719184 12.98906121 13.92719184 12 16 C11.01 16 10.02 16 9 16 C8.76925781 15.34773438 8.53851563 14.69546875 8.30078125 14.0234375 C6.2161968 8.43708076 4.10452299 4.33255205 0 0 Z " fill="#091C94" transform="translate(22,106)"/>
<path d="M0 0 C2.64 0.33 5.28 0.66 8 1 C8 3.97 8 6.94 8 10 C7.34 8.68 6.68 7.36 6 6 C6 7.98 6 9.96 6 12 C8.64 12 11.28 12 14 12 C13.67 12.66 13.34 13.32 13 14 C8.71 13.67 4.42 13.34 0 13 C0 8.71 0 4.42 0 0 Z " fill="#2E96C7" transform="translate(214,89)"/>
<path d="M0 0 C-0.25 2.375 -0.25 2.375 -1 5 C-4.5738165 7.66284366 -7.9824202 7.02014628 -12.25 6.625 C-13.51328125 6.51414062 -14.7765625 6.40328125 -16.078125 6.2890625 C-17.04234375 6.19367188 -18.0065625 6.09828125 -19 6 C-18.34 4.35 -17.68 2.7 -17 1 C-14.72926348 0.83201949 -12.45840707 0.66565887 -10.1875 0.5 C-8.29064453 0.36078125 -8.29064453 0.36078125 -6.35546875 0.21875 C-4.24021483 0.08085219 -2.11974408 0 0 0 Z " fill="#329AD7" transform="translate(39,86)"/>
<path d="M0 0 C0 0.99 0 1.98 0 3 C-10 8 -10 8 -12.19921875 9.09765625 C-13.49087573 9.74488567 -14.77815982 10.40087021 -16.0625 11.0625 C-18 12 -18 12 -21 13 C-21 13.66 -21 14.32 -21 15 C-21.61875 15.103125 -22.2375 15.20625 -22.875 15.3125 C-25.36526484 15.87525373 -25.36526484 15.87525373 -27 19 C-29.625 19.6875 -29.625 19.6875 -32 20 C-32 20.66 -32 21.32 -32 22 C-32.66 22 -33.32 22 -34 22 C-34 22.66 -34 23.32 -34 24 C-35.8125 25.0625 -35.8125 25.0625 -38 26 C-38.99 25.67 -39.98 25.34 -41 25 C-28.49681751 14.61749864 -14.63964303 6.98877431 0 0 Z " fill="#0F207A" transform="translate(91,94)"/>
<path d="M0 0 C1.65 0 3.3 0 5 0 C1.12694185 3.24668756 -3.33438608 5.29171956 -7.8125 7.5625 C-16.65375241 12.11566402 -24.86933154 17.28787118 -33 23 C-33.33 21.68 -33.66 20.36 -34 19 C-31.64031256 16.90250005 -30.45383006 16.03094296 -27.25 15.8125 C-26.5075 15.874375 -25.765 15.93625 -25 16 C-25 15.34 -25 14.68 -25 14 C-24.01 14 -23.02 14 -22 14 C-22 13.34 -22 12.68 -22 12 C-20 10 -20 10 -17.375 9.875 C-16.59125 9.91625 -15.8075 9.9575 -15 10 C-15 9.34 -15 8.68 -15 8 C-14.34 8 -13.68 8 -13 8 C-13 7.34 -13 6.68 -13 6 C-11.35 6 -9.7 6 -8 6 C-8 5.34 -8 4.68 -8 4 C-7.01 4 -6.02 4 -5 4 C-5 3.34 -5 2.68 -5 2 C-3.35 2 -1.7 2 0 2 C0 1.34 0 0.68 0 0 Z " fill="#399ED6" transform="translate(94,87)"/>
<path d="M0 0 C0.33 1.32 0.66 2.64 1 4 C3.31 4 5.62 4 8 4 C8 4.66 8 5.32 8 6 C8.59167969 6.19335938 9.18335938 6.38671875 9.79296875 6.5859375 C16.64244186 8.84302326 16.64244186 8.84302326 19.5625 10.125 C23.01074434 11.3628313 26.35753928 11.62958027 30 12 C28.61811547 15.21043882 27.07578097 17.04936365 24.375 19.25 C23.74335937 19.77078125 23.11171875 20.2915625 22.4609375 20.828125 C21.97882812 21.21484375 21.49671875 21.6015625 21 22 C22.875 15.125 22.875 15.125 24 14 C23.01 13.7525 22.02 13.505 21 13.25 C18.20590133 12.46206418 15.80264376 11.43902897 13.25 10.0625 C8.4138866 7.52068449 3.28510773 6.28241585 -2 5 C-1.125 1.125 -1.125 1.125 0 0 Z " fill="#193189" transform="translate(20,88)"/>
<path d="M0 0 C0.66 0 1.32 0 2 0 C2.02712066 1.43739513 2.04645067 2.87493863 2.0625 4.3125 C2.07410156 5.11300781 2.08570313 5.91351563 2.09765625 6.73828125 C2 9 2 9 1 12 C-5.0546875 12.9765625 -5.0546875 12.9765625 -7 13 C-7.66 12.34 -8.32 11.68 -9 11 C-8.34 10.34 -7.68 9.68 -7 9 C-6.67 8.01 -6.34 7.02 -6 6 C-6.66 5.34 -7.32 4.68 -8 4 C-4.535 3.505 -4.535 3.505 -1 3 C-0.67 2.01 -0.34 1.02 0 0 Z " fill="#1DC8FA" transform="translate(212,90)"/>
<path d="M0 0 C2.00287872 0.06404554 4.00368415 0.20079319 6 0.375 C7.093125 0.46523437 8.18625 0.55546875 9.3125 0.6484375 C12 1 12 1 13 2 C13.14115161 4.67058851 13.04247107 7.32432238 13 10 C12.01 9.67 11.02 9.34 10 9 C8.8125 6.4375 8.8125 6.4375 8 4 C7.67 4 7.34 4 7 4 C7.66 5.65 8.32 7.3 9 9 C8.01 9.99 7.02 10.98 6 12 C6 10.35 6 8.7 6 7 C3.69 6.67 1.38 6.34 -1 6 C-1.042721 4.33388095 -1.04063832 2.66617115 -1 1 C-0.67 0.67 -0.34 0.34 0 0 Z " fill="#33A3D3" transform="translate(231,88)"/>
<path d="M0 0 C0.66 0.33 1.32 0.66 2 1 C2 3 2 5 2 7 C4.97 7 7.94 7 11 7 C7.87754953 9.08163365 4.92965119 10.32575613 1.4375 11.6875 C0.28121094 12.14511719 -0.87507813 12.60273437 -2.06640625 13.07421875 C-5 14 -5 14 -7 13 C-6.67 11.02 -6.34 9.04 -6 7 C-4.68 7 -3.36 7 -2 7 C-1.855625 6.21625 -1.71125 5.4325 -1.5625 4.625 C-1 2 -1 2 0 0 Z " fill="#0619AA" transform="translate(78,103)"/>
<path d="M0 0 C0.33 0 0.66 0 1 0 C1 2.97 1 5.94 1 9 C2.32 9 3.64 9 5 9 C5 7.68 5 6.36 5 5 C6.65 5.33 8.3 5.66 10 6 C9.67 6.99 9.34 7.98 9 9 C9.66 9.33 10.32 9.66 11 10 C11.33 8.68 11.66 7.36 12 6 C12 7.98 12 9.96 12 12 C8.98131566 13.50934217 6.32702771 13.17510672 3 13 C2.01 12.34 1.02 11.68 0 11 C-0.29296875 8.3984375 -0.29296875 8.3984375 -0.1875 5.375 C-0.16042969 4.37210937 -0.13335937 3.36921875 -0.10546875 2.3359375 C-0.07066406 1.56507812 -0.03585938 0.79421875 0 0 Z " fill="#2EBFEC" transform="translate(246,90)"/>
<path d="M0 0 C0.99 0 1.98 0 3 0 C3 6.6 3 13.2 3 20 C2.01 20 1.02 20 0 20 C0 13.4 0 6.8 0 0 Z " fill="#041167" transform="translate(150,142)"/>
<path d="M0 0 C0.33 0.66 0.66 1.32 1 2 C1.66 2 2.32 2 3 2 C3.33 3.98 3.66 5.96 4 8 C1 10 1 10 -1.6875 9.625 C-2.450625 9.41875 -3.21375 9.2125 -4 9 C-4 6.36 -4 3.72 -4 1 C-2.68 0.67 -1.36 0.34 0 0 Z " fill="#21B7F0" transform="translate(234,93)"/>
<path d="M0 0 C2.0625 0.4375 2.0625 0.4375 4 1 C1.87767021 2.17176518 -0.24757791 3.33754785 -2.375 4.5 C-2.97828125 4.83386719 -3.5815625 5.16773437 -4.203125 5.51171875 C-8.7734375 8 -8.7734375 8 -11 8 C-12.4606285 5.35261084 -13 4.10551666 -13 1 C-11.71802734 1.01740234 -11.71802734 1.01740234 -10.41015625 1.03515625 C-8.75306641 1.04869141 -8.75306641 1.04869141 -7.0625 1.0625 C-5.40927734 1.07990234 -5.40927734 1.07990234 -3.72265625 1.09765625 C-1.08552366 1.31262571 -1.08552366 1.31262571 0 0 Z " fill="#031AA6" transform="translate(67,117)"/>
<path d="M0 0 C-1.65 1.98 -3.3 3.96 -5 6 C-5.33 4.68 -5.66 3.36 -6 2 C-6.61746094 2.19335938 -7.23492187 2.38671875 -7.87109375 2.5859375 C-22.22772277 7 -22.22772277 7 -29 7 C-26.17217843 5.11478562 -24.51470368 4.4822186 -21.2890625 3.7109375 C-19.91621094 3.38222656 -19.91621094 3.38222656 -18.515625 3.046875 C-17.08476562 2.71429688 -17.08476562 2.71429688 -15.625 2.375 C-14.67882812 2.14554687 -13.73265625 1.91609375 -12.7578125 1.6796875 C-8.39296242 0.64977905 -4.50619248 -0.13167772 0 0 Z " fill="#121F88" transform="translate(146,79)"/>
<path d="M0 0 C0.99 1.485 0.99 1.485 2 3 C3.98 2.67 5.96 2.34 8 2 C8.33 3.32 8.66 4.64 9 6 C8.01 6 7.02 6 6 6 C5.67 6.99 5.34 7.98 5 9 C7.31 9.33 9.62 9.66 12 10 C12.33 10.99 12.66 11.98 13 13 C2.68884892 10.09172662 2.68884892 10.09172662 0 6 C-0.25 2.75 -0.25 2.75 0 0 Z " fill="#2EA0DB" transform="translate(30,140)"/>
<path d="M0 0 C2.015625 1.703125 2.015625 1.703125 4 4 C4.171875 6.359375 4.171875 6.359375 3.75 8.75 C3.62109375 9.54921875 3.4921875 10.3484375 3.359375 11.171875 C3.24078125 11.77515625 3.1221875 12.3784375 3 13 C3.66 13 4.32 13 5 13 C5 14.32 5 15.64 5 17 C5.66 17.33 6.32 17.66 7 18 C5.68 18 4.36 18 3 18 C0.73150334 14.34827367 0.6104049 10.9872882 0.375 6.75 C0.30023438 5.48671875 0.22546875 4.2234375 0.1484375 2.921875 C0.09945312 1.95765625 0.05046875 0.9934375 0 0 Z " fill="#041BB2" transform="translate(40,129)"/>
<path d="M0 0 C5.19209404 -0.21192221 9.126739 0.4087311 14 2 C14 2.66 14 3.32 14 4 C9.38 4 4.76 4 0 4 C0 2.68 0 1.36 0 0 Z " fill="#2DB0F2" transform="translate(22,87)"/>
<path d="M0 0 C3.96 0 7.92 0 12 0 C12 0.66 12 1.32 12 2 C11.01 2 10.02 2 9 2 C9 3.32 9 4.64 9 6 C7.35 6.33 5.7 6.66 4 7 C4 5.35 4 3.7 4 2 C2.68 2 1.36 2 0 2 C0 1.34 0 0.68 0 0 Z " fill="#12248A" transform="translate(176,106)"/>
<path d="M0 0 C0.33 0 0.66 0 1 0 C1 4.29 1 8.58 1 13 C-2.21451269 14.60725635 -5.43612536 14.05748185 -9 14 C-8 12 -8 12 -5 11 C-1.77094885 8.53072559 -1.0628159 7.31407952 -0.25 3.25 C-0.12625 1.64125 -0.12625 1.64125 0 0 Z " fill="#2D809F" transform="translate(244,89)"/>
<path d="M0 0 C0.598125 0.165 1.19625 0.33 1.8125 0.5 C4.11344336 1.1114124 4.11344336 1.1114124 7 1 C11.04706667 2.97164786 13.36151691 5.38430095 16 9 C14.56163249 8.88541307 13.12429034 8.75790884 11.6875 8.625 C10.48673828 8.52058594 10.48673828 8.52058594 9.26171875 8.4140625 C7 8 7 8 4 6 C5.65 6 7.3 6 9 6 C9 5.34 9 4.68 9 4 C4.545 3.01 4.545 3.01 0 2 C0 1.34 0 0.68 0 0 Z " fill="#164694" transform="translate(48,150)"/>
<path d="M0 0 C0.33 0.66 0.66 1.32 1 2 C-1.37375443 4.74855776 -3.66357897 5.6829917 -7 7 C-7.33 7.66 -7.66 8.32 -8 9 C-8.99 9 -9.98 9 -11 9 C-11.33 9.99 -11.66 10.98 -12 12 C-15.5625 13.1875 -15.5625 13.1875 -19 14 C-15.2567748 9.97048607 -11.35278875 7.07507831 -6.6875 4.1875 C-5.71973633 3.57745117 -5.71973633 3.57745117 -4.73242188 2.95507812 C-3.15863345 1.9641743 -1.57982788 0.98124628 0 0 Z " fill="#3585B2" transform="translate(89,72)"/>
<path d="M0 0 C0.33 0 0.66 0 1 0 C1 2.97 1 5.94 1 9 C2.32 8.67 3.64 8.34 5 8 C5 7.34 5 6.68 5 6 C5.99 6.33 6.98 6.66 8 7 C7.67 7.99 7.34 8.98 7 10 C6.34 10 5.68 10 5 10 C4.67 10.99 4.34 11.98 4 13 C2.68 13 1.36 13 0 13 C0 8.71 0 4.42 0 0 Z " fill="#1A7AA3" transform="translate(199,89)"/>
<path d="M0 0 C0 0.33 0 0.66 0 1 C-3.08821208 2.05451144 -6.17203726 3.04868979 -9.3125 3.9375 C-13.5862739 5.16892638 -17.79004425 6.56804226 -22 8 C-22 7.34 -22 6.68 -22 6 C-18.901466 4.79741744 -15.79541934 3.61559217 -12.6875 2.4375 C-11.80642578 2.09525391 -10.92535156 1.75300781 -10.01757812 1.40039062 C-9.17001953 1.08134766 -8.32246094 0.76230469 -7.44921875 0.43359375 C-6.27879028 -0.01415405 -6.27879028 -0.01415405 -5.0847168 -0.47094727 C-3 -1 -3 -1 0 0 Z " fill="#132188" transform="translate(116,87)"/>
<path d="M0 0 C-0.54339792 4.56454251 -1.79463821 7.9728176 -4 12 C-6 9 -6 9 -6 7 C-5.01 7 -4.02 7 -3 7 C-3 6.01 -3 5.02 -3 4 C-4.98 4.33 -6.96 4.66 -9 5 C-2.87096774 0 -2.87096774 0 0 0 Z " fill="#368EBB" transform="translate(116,57)"/>
<path d="M0 0 C-1.38188453 3.21043882 -2.92421903 5.04936365 -5.625 7.25 C-6.57246094 8.03117187 -6.57246094 8.03117187 -7.5390625 8.828125 C-8.02117188 9.21484375 -8.50328125 9.6015625 -9 10 C-6.54716981 0 -6.54716981 0 0 0 Z " fill="#15369C" transform="translate(50,100)"/>
<path d="M0 0 C0.33 0.99 0.66 1.98 1 3 C0.34 3.66 -0.32 4.32 -1 5 C-0.01 5.66 0.98 6.32 2 7 C-1.63 6.67 -5.26 6.34 -9 6 C-9.33 5.01 -9.66 4.02 -10 3 C-9.04287109 2.80083984 -9.04287109 2.80083984 -8.06640625 2.59765625 C-7.24011719 2.42105469 -6.41382813 2.24445313 -5.5625 2.0625 C-4.73878906 1.88847656 -3.91507813 1.71445313 -3.06640625 1.53515625 C-1.02338796 1.19247006 -1.02338796 1.19247006 0 0 Z " fill="#0F1C7E" transform="translate(13,96)"/>
<path d="M0 0 C0.33 0.66 0.66 1.32 1 2 C0.34 2 -0.32 2 -1 2 C-1 2.66 -1 3.32 -1 4 C-1.99 4 -2.98 4 -4 4 C-4 4.66 -4 5.32 -4 6 C-7.27037599 9.27037599 -10.5130254 9.56856013 -15 10 C-10.39486061 6.00887919 -5.24516756 3.05543741 0 0 Z " fill="#3488AD" transform="translate(105,62)"/>
<path d="M0 0 C1.24674659 3.74023976 0.76679965 6.16600177 0 10 C-0.66 10.66 -1.32 11.32 -2 12 C-4.125 11.625 -4.125 11.625 -6 11 C-6 10.01 -6 9.02 -6 8 C-5.38125 7.79375 -4.7625 7.5875 -4.125 7.375 C-1.15346355 5.45224112 -0.86975341 3.33405473 0 0 Z " fill="#22B5F8" transform="translate(37,132)"/>
<path d="M0 0 C0.66 0 1.32 0 2 0 C2.92470553 4.71599818 3.22923777 7.67265609 1 12 C0.67 11.01 0.34 10.02 0 9 C-0.99 9.33 -1.98 9.66 -3 10 C-3 9.01 -3 8.02 -3 7 C-2.01 6.67 -1.02 6.34 0 6 C0 4.02 0 2.04 0 0 Z " fill="#33AAE7" transform="translate(108,64)"/>
<path d="M0 0 C2.66666667 2.66666667 5.33333333 5.33333333 8 8 C7.67 8.66 7.34 9.32 7 10 C4.03 9.505 4.03 9.505 1 9 C-0.14466615 5.56600155 0 3.69214898 0 0 Z " fill="#0A2491" transform="translate(45,142)"/>
<path d="M0 0 C2.475 0.495 2.475 0.495 5 1 C5 3.97 5 6.94 5 10 C4.34 8.68 3.68 7.36 3 6 C2.34 7.32 1.68 8.64 1 10 C0.67 6.7 0.34 3.4 0 0 Z " fill="#1F80AD" transform="translate(217,89)"/>
<path d="M0 0 C1.5 1.3125 1.5 1.3125 3 3 C3 3.99 3 4.98 3 6 C0.69 5.67 -1.62 5.34 -4 5 C-3.6875 3.0625 -3.6875 3.0625 -3 1 C-2.01 0.67 -1.02 0.34 0 0 Z " fill="#19A6EF" transform="translate(39,144)"/>
<path d="M0 0 C0.66 0.33 1.32 0.66 2 1 C2 1.66 2 2.32 2 3 C1.34 3 0.68 3 0 3 C-0.12375 3.598125 -0.2475 4.19625 -0.375 4.8125 C-1 7 -1 7 -3 10 C-4.32 10 -5.64 10 -7 10 C-6.34 8.68 -5.68 7.36 -5 6 C-4.34 6 -3.68 6 -3 6 C-2.690625 5.38125 -2.38125 4.7625 -2.0625 4.125 C-1.375 2.75 -0.6875 1.375 0 0 Z " fill="#113787" transform="translate(48,119)"/>
<path d="M0 0 C1.32 0 2.64 0 4 0 C3.609375 6.0546875 3.609375 6.0546875 3 8 C1.02 8.99 1.02 8.99 -1 10 C-0.67 6.7 -0.34 3.4 0 0 Z " fill="#2F3E77" transform="translate(188,106)"/>
<path d="M0 0 C0.66 0 1.32 0 2 0 C1.45650964 3.80443255 -0.03084153 5.6081779 -3 8 C-5.75 8.75 -5.75 8.75 -8 9 C-7.04270084 7.87411986 -6.08412105 6.7493285 -5.125 5.625 C-4.59132812 4.99851562 -4.05765625 4.37203125 -3.5078125 3.7265625 C-2.38567993 2.44163349 -1.20628025 1.20628025 0 0 Z " fill="#2D78A9" transform="translate(54,98)"/>
<path d="M0 0 C1.65 0 3.3 0 5 0 C5 0.66 5 1.32 5 2 C4.34 2 3.68 2 3 2 C3 3.98 3 5.96 3 8 C3.66 8.33 4.32 8.66 5 9 C3.35 9 1.7 9 0 9 C0 6.03 0 3.06 0 0 Z " fill="#1A2B95" transform="translate(166,106)"/>
<path d="M0 0 C3.85645121 -0.22036864 6.49223216 0.39644899 10 2 C10 1.34 10 0.68 10 0 C11.9375 0.3125 11.9375 0.3125 14 1 C14.33 1.99 14.66 2.98 15 4 C12.87363187 3.71848084 10.74891472 3.42446737 8.625 3.125 C7.44164062 2.96257812 6.25828125 2.80015625 5.0390625 2.6328125 C2 2 2 2 0 0 Z " fill="#2B7FD2" transform="translate(43,153)"/>
<path d="M0 0 C0.66 0 1.32 0 2 0 C2 3.96 2 7.92 2 12 C1.01 11.34 0.02 10.68 -1 10 C-1.328125 8.125 -1.328125 8.125 -1.25 6 C-1.22679687 4.948125 -1.22679687 4.948125 -1.203125 3.875 C-1 2 -1 2 0 0 Z " fill="#497083" transform="translate(257,90)"/>
<path d="M0 0 C0 0.99 0 1.98 0 3 C-2.76223278 5.76223278 -5.20706617 5.57856291 -9 6 C-6.58170035 2.37255052 -5.05638557 2.20828506 -1 1 C-0.67 0.67 -0.34 0.34 0 0 Z M-10 6 C-9.34 6.33 -8.68 6.66 -8 7 C-8 7.66 -8 8.32 -8 9 C-8.99 9 -9.98 9 -11 9 C-10.67 8.01 -10.34 7.02 -10 6 Z " fill="#0819A1" transform="translate(139,85)"/>
<path d="M0 0 C-0.33 1.65 -0.66 3.3 -1 5 C-1.66 5 -2.32 5 -3 5 C-3 4.34 -3 3.68 -3 3 C-5.31 2.67 -7.62 2.34 -10 2 C-10 1.67 -10 1.34 -10 1 C-3.375 0 -3.375 0 0 0 Z " fill="#429CCD" transform="translate(39,86)"/>
<path d="M0 0 C-5.445 2.475 -5.445 2.475 -11 5 C-11.33 4.01 -11.66 3.02 -12 2 C-10.75579353 1.4654744 -9.50429064 0.94791389 -8.25 0.4375 C-7.55390625 0.14746094 -6.8578125 -0.14257812 -6.140625 -0.44140625 C-4 -1 -4 -1 0 0 Z " fill="#0A1A8F" transform="translate(71,118)"/>
<path d="M0 0 C1.4540625 0.0309375 1.4540625 0.0309375 2.9375 0.0625 C1.9784375 0.6503125 1.9784375 0.6503125 1 1.25 C-1.50028819 3.44722296 -1.71200425 4.82041433 -2.0625 8.0625 C-2.7225 8.0625 -3.3825 8.0625 -4.0625 8.0625 C-4.10491723 5.72955225 -4.10342937 3.39547433 -4.0625 1.0625 C-3.0625 0.0625 -3.0625 0.0625 0 0 Z " fill="#1F2A8A" transform="translate(162.0625,105.9375)"/>
<path d="M0 0 C2.66666667 0.66666667 5.33333333 1.33333333 8 2 C7.67 3.98 7.34 5.96 7 8 C6.401875 7.236875 5.80375 6.47375 5.1875 5.6875 C3.53040668 3.6516425 1.89702326 1.8021721 0 0 Z " fill="#0A1171" transform="translate(22,106)"/>
<path d="M0 0 C-2.33214148 1.20628008 -4.49642139 2.1654738 -7 3 C-7 3.66 -7 4.32 -7 5 C-8.98 5.66 -10.96 6.32 -13 7 C-11.78081617 3.3424485 -10.15928702 2.57671131 -6.85546875 0.78515625 C-4.48526307 -0.217815 -2.54101354 -0.30800164 0 0 Z " fill="#10238D" transform="translate(77,104)"/>
<path d="M0 0 C0.99 0 1.98 0 3 0 C2.979375 1.11375 2.95875 2.2275 2.9375 3.375 C2.73619282 6.83215921 2.73619282 6.83215921 4 9 C2.68 8.67 1.36 8.34 0 8 C0 5.36 0 2.72 0 0 Z " fill="#32B5ED" transform="translate(230,94)"/>
<path d="M0 0 C2.475 0.495 2.475 0.495 5 1 C5 3.64 5 6.28 5 9 C4.01 8.67 3.02 8.34 2 8 C2.33 5.69 2.66 3.38 3 1 C2.01 0.67 1.02 0.34 0 0 Z " fill="#4CA6ED" transform="translate(239,89)"/>
<path d="M0 0 C0.33 0.66 0.66 1.32 1 2 C-0.22934015 5.68802044 -1.93859378 6.72356973 -5 9 C-5 5 -5 5 -2.5 2.25 C-1.675 1.5075 -0.85 0.765 0 0 Z " fill="#2B79A2" transform="translate(45,108)"/>
<path d="M0 0 C0.33 0 0.66 0 1 0 C1 2.97 1 5.94 1 9 C2.98 9.495 2.98 9.495 5 10 C5 10.66 5 11.32 5 12 C3.35 11.67 1.7 11.34 0 11 C0 7.37 0 3.74 0 0 Z " fill="#33AFED" transform="translate(246,90)"/>
<path d="M0 0 C0.66 0.33 1.32 0.66 2 1 C-2.30769231 6.78461538 -2.30769231 6.78461538 -5.8125 7.875 C-6.8953125 7.936875 -6.8953125 7.936875 -8 8 C-5.33333333 5.33333333 -2.66666667 2.66666667 0 0 Z " fill="#30789E" transform="translate(68,86)"/>
<path d="M0 0 C2.31 0 4.62 0 7 0 C6.4375 1.9375 6.4375 1.9375 5 4 C1.375 4.75 1.375 4.75 -2 5 C-1.67 4.34 -1.34 3.68 -1 3 C1.0625 2.375 1.0625 2.375 3 2 C2.01 1.34 1.02 0.68 0 0 Z " fill="#2B8BB5" transform="translate(206,89)"/>
<path d="M0 0 C0.66 1.32 1.32 2.64 2 4 C3.32 4 4.64 4 6 4 C6.33 3.34 6.66 2.68 7 2 C7 2.99 7 3.98 7 5 C6.34 5 5.68 5 5 5 C5 5.66 5 6.32 5 7 C3.35 6.67 1.7 6.34 0 6 C0 4.02 0 2.04 0 0 Z " fill="#15247B" transform="translate(169,108)"/>
<path d="M0 0 C1.43655854 -0.08131463 2.8744483 -0.13933559 4.3125 -0.1875 C5.51326172 -0.23970703 5.51326172 -0.23970703 6.73828125 -0.29296875 C9.47851584 0.06198392 10.29171079 0.89366282 12 3 C10.56163249 2.88541307 9.12429034 2.75790884 7.6875 2.625 C6.88699219 2.55539063 6.08648437 2.48578125 5.26171875 2.4140625 C3 2 3 2 0 0 Z " fill="#206495" transform="translate(52,156)"/>
<path d="M0 0 C0.99 0 1.98 0 3 0 C3 1.98 3 3.96 3 6 C2.01 6.33 1.02 6.66 0 7 C0 4.69 0 2.38 0 0 Z " fill="#133E7C" transform="translate(37,135)"/>
<path d="M0 0 C1.48206495 0.254496 2.96068615 0.52911762 4.4375 0.8125 C5.67306641 1.03873047 5.67306641 1.03873047 6.93359375 1.26953125 C7.95646484 1.63111328 7.95646484 1.63111328 9 2 C9.33 2.99 9.66 3.98 10 5 C8.51800098 4.55090939 7.03944764 4.09043436 5.5625 3.625 C4.73878906 3.36976563 3.91507813 3.11453125 3.06640625 2.8515625 C1 2 1 2 0 0 Z " fill="#2D87BF" transform="translate(33,148)"/>
<path d="M0 0 C2 2 2 2 2.125 5.125 C2.08375 6.07375 2.0425 7.0225 2 8 C1.67 6.68 1.34 5.36 1 4 C-0.32 3.67 -1.64 3.34 -3 3 C-3 2.34 -3 1.68 -3 1 C-2.01 0.67 -1.02 0.34 0 0 Z " fill="#122155" transform="translate(165,106)"/>
<path d="M0 0 C0.66 0 1.32 0 2 0 C2.33 2.31 2.66 4.62 3 7 C1.68 6.67 0.36 6.34 -1 6 C-0.67 4.02 -0.34 2.04 0 0 Z " fill="#21AEEA" transform="translate(210,95)"/>
<path d="M0 0 C0.66 1.32 1.32 2.64 2 4 C0.68 4.33 -0.64 4.66 -2 5 C-2.66 4.01 -3.32 3.02 -4 2 C-2.68 1.34 -1.36 0.68 0 0 Z " fill="#2FA6DF" transform="translate(62,93)"/>
<path d="M0 0 C0.33 0.66 0.66 1.32 1 2 C-0.97420135 4.52259061 -1.96745642 4.9929808 -5.1875 5.6875 C-6.5796875 5.8421875 -6.5796875 5.8421875 -8 6 C-5.51047079 3.33264727 -3.36591866 1.44253657 0 0 Z " fill="#317EA8" transform="translate(89,72)"/>
</svg>
